{
  "accessors": [
    {
      "bufferView": 2,
      "componentType": 5126,
      "count": 54059,
      "max": [
        0.15237699449062347,
        0.14682500064373016,
        0.33460000157356262
      ],
      "min": [
        -0.15164899826049805,
        -0.13649000227451324,
        -0.055323999375104904
      ],
      "type": "VEC3"
    },
    {
      "bufferView": 2,
      "byteOffset": 648708,
      "componentType": 5126,
      "count": 54059,
      "max": [
        0.99998319149017334,
        0.99999845027923584,
        0.99999070167541504
      ],
      "min": [
        -0.99997186660766602,
        -0.99994564056396484,
        -0.99984091520309448
      ],
      "type": "VEC3"
    },
    {
      "bufferView": 3,
      "componentType": 5126,
      "count": 54059,
      "max": [
        0.99996799230575562,
        0.9998396635055542,
        0.9999968409538269,
        1
      ],
      "min": [
        -0.99996346235275269,
        -0.99999654293060303,
        -0.99997091293334961,
        -1
      ],
      "type": "VEC4"
    },
    {
      "bufferView": 1,
      "componentType": 5126,
      "count": 54059,
      "max": [
        0.99295902252197266,
        0.98593497276306152
      ],
      "min": [
        0.0070409998297691345,
        0.0070409998297691345
      ],
      "type": "VEC2"
    },
    {
      "bufferView": 0,
      "componentType": 5125,
      "count": 292524,
      "max": [
        54058
      ],
      "min": [
        0
      ],
      "type": "SCALAR"
    }
  ],
  "asset": {
    "extras": {
      "author": "Luis_B (https://sketchfab.com/LB1212)",
      "license": "CC-BY-NC-SA-4.0 (http://creativecommons.org/licenses/by-nc-sa/4.0/)",
      "source": "https://sketchfab.com/3d-models/cabeza-de-amenothep-iii-optimizacion-3acbfb17873a4bb1ba49a14dce673e6b",
      "title": "Cabeza  de Amenothep III - Optimización"
    },
    "generator": "Sketchfab-8.56.0",
    "version": "2.0"
  },
  "bufferViews": [
    {
      "buffer": 0,
      "byteLength": 1170096,
      "byteOffset": 0,
      "name": "floatBufferViews",
      "target": 34963
    },
    {
      "buffer": 0,
      "byteLength": 432472,
      "byteOffset": 1170096,
      "byteStride": 8,
      "name": "floatBufferViews",
      "target": 34962
    },
    {
      "buffer": 0,
      "byteLength": 1297416,
      "byteOffset": 1602568,
      "byteStride": 12,
      "name": "floatBufferViews",
      "target": 34962
    },
    {
      "buffer": 0,
      "byteLength": 864944,
      "byteOffset": 2899984,
      "byteStride": 16,
      "name": "floatBufferViews",
      "target": 34962
    }
  ],
  "buffers": [
    {
      "byteLength": 3764928,
      "uri": "scene.bin"
    }
  ],
  "images": [
    {
      "uri": "textures/defaultMat.001_baseColor.jpeg"
    },
    {
      "uri": "textures/defaultMat.001_metallicRoughness.png"
    },
    {
      "uri": "textures/defaultMat.001_normal.jpeg"
    }
  ],
  "materials": [
    {
      "doubleSided": false,
      "name": "defaultMat.001",
      "normalTexture": {
        "index": 2,
        "scale": 1,
        "texCoord": 0
      },
      "occlusionTexture": {
        "index": 1,
        "strength": 1,
        "texCoord": 0
      },
      "pbrMetallicRoughness": {
        "baseColorFactor": [
          1,
          1,
          1,
          1
        ],
        "baseColorTexture": {
          "index": 0,
          "texCoord": 0
        },
        "metallicFactor": 0,
        "metallicRoughnessTexture": {
          "index": 1,
          "texCoord": 0
        },
        "roughnessFactor": 1
      }
    }
  ],
  "meshes": [
    {
      "primitives": [
        {
          "attributes": {
            "NORMAL": 1,
            "POSITION": 0,
            "TANGENT": 2,
            "TEXCOORD_0": 3
          },
          "indices": 4,
          "material": 0,
          "mode": 4
        }
      ]
    }
  ],
  "nodes": [
    {
      "children": [
        1
      ],
      "name": "RootNode (gltf orientation matrix)",
      "rotation": [
        -0.70710678118654746,
        -0,
        -0,
        0.70710678118654757
      ]
    },
    {
      "children": [
        2
      ],
      "matrix": [
        0.99999994039535522,
        -0.00029896036721765995,
        2.5930557967512868e-05,
        0,
        0.0003000828146468848,
        0.99625951051712036,
        -0.086411334574222565,
        0,
        -5.3339358754497801e-17,
        0.086411334574222565,
        0.99625957012176514,
        0,
        -1.5506545878452016e-06,
        -0.012046869844198227,
        0.00096882885554805398,
        1
      ],
      "name": "RootNode (model correction matrix)"
    },
    {
      "children": [
        3
      ],
      "name": "Cabeza_LP.OBJ.cleaner.materialmerger.gles"
    },
    {
      "mesh": 0,
      "name": ""
    }
  ],
  "samplers": [
    {
      "magFilter": 9729,
      "minFilter": 9987,
      "wrapS": 10497,
      "wrapT": 10497
    }
  ],
  "scene": 0,
  "scenes": [
    {
      "name": "OSG_Scene",
      "nodes": [
        0
      ]
    }
  ],
  "textures": [
    {
      "sampler": 0,
      "source": 0
    },
    {
      "sampler": 0,
      "source": 1
    },
    {
      "sampler": 0,
      "source": 2
    }
  ]
}

