<svg id="svg" version="1.1" xmlns="http://www.w3.org/2000/svg" xmlns:xlink="http://www.w3.org/1999/xlink" width="400" height="400" viewBox="0, 0, 400,400"><g id="svgg"><path id="path0" d="M119.190 134.440 C 82.405 137.371,59.493 161.851,59.499 198.212 C 59.507 238.882,89.022 262.665,133.492 257.836 C 142.202 256.890,153.278 254.209,153.278 253.046 C 153.278 252.819,149.607 233.630,149.353 232.527 C 149.242 232.048,149.195 232.053,146.909 232.800 C 130.299 238.224,112.465 236.498,101.747 228.431 C 82.604 214.021,83.333 176.780,103.021 163.343 C 114.297 155.647,131.828 154.536,147.626 160.517 C 148.797 160.961,149.272 161.050,149.342 160.839 C 149.544 160.228,154.708 139.880,154.708 139.693 C 154.708 139.045,147.187 136.684,142.175 135.758 C 135.689 134.560,125.216 133.959,119.190 134.440 M209.416 134.350 C 183.511 136.371,167.732 150.658,168.373 171.514 C 168.854 187.170,178.829 197.704,200.954 205.923 C 211.131 209.703,215.173 211.823,218.133 214.934 C 223.967 221.064,222.061 230.167,214.165 233.889 C 205.781 237.840,188.823 236.139,175.028 229.964 C 172.212 228.703,172.102 228.674,171.986 229.167 C 171.920 229.448,170.694 234.449,169.261 240.279 C 167.484 247.512,166.731 250.970,166.891 251.164 C 167.932 252.418,178.707 255.803,185.342 256.961 C 222.086 263.371,249.167 248.109,249.193 220.977 C 249.208 204.395,240.271 193.897,219.070 185.598 C 199.447 177.915,195.828 175.220,195.828 168.283 C 195.828 156.196,216.277 152.579,236.073 161.165 C 237.260 161.680,238.307 162.020,238.399 161.921 C 238.582 161.723,244.342 140.937,244.340 140.483 C 244.337 139.980,237.771 137.618,233.254 136.495 C 226.644 134.853,215.655 133.864,209.416 134.350 M305.959 134.350 C 280.054 136.371,264.275 150.658,264.917 171.514 C 265.398 187.170,275.373 197.704,297.497 205.923 C 307.674 209.703,311.717 211.823,314.677 214.934 C 320.511 221.064,318.605 230.167,310.708 233.889 C 302.325 237.840,285.366 236.139,271.572 229.964 C 268.756 228.703,268.645 228.674,268.530 229.167 C 268.464 229.448,267.238 234.449,265.805 240.279 C 264.027 247.512,263.274 250.970,263.435 251.164 C 264.476 252.418,275.250 255.803,281.886 256.961 C 318.630 263.371,345.710 248.109,345.736 220.977 C 345.752 204.395,336.814 193.897,315.614 185.598 C 295.990 177.915,292.372 175.220,292.372 168.283 C 292.372 156.196,312.820 152.579,332.616 161.165 C 333.804 161.680,334.851 162.020,334.943 161.921 C 335.125 161.723,340.886 140.937,340.883 140.483 C 340.881 139.980,334.314 137.618,329.797 136.495 C 323.188 134.853,312.199 133.864,305.959 134.350 " stroke="none" fill="#f3f3f3" fill-rule="evenodd"></path><path id="path1" d="M184.148 0.382 C 149.700 3.763,118.184 22.603,79.529 62.920 C 60.690 82.569,55.581 88.401,39.532 108.582 C 16.392 137.680,7.125 158.275,0.835 194.580 C -3.888 221.843,7.985 256.182,32.875 287.247 C 46.816 304.645,74.057 331.513,95.127 348.646 C 125.231 373.125,135.776 380.048,154.112 387.373 C 170.219 393.807,193.069 399.046,205.025 399.046 C 242.967 399.046,277.321 380.152,319.621 336.021 C 338.389 316.439,343.489 310.616,359.514 290.465 C 382.662 261.357,391.922 240.772,398.219 204.422 C 400.773 189.682,397.735 169.202,390.384 151.601 C 380.610 128.200,364.260 106.493,336.021 79.426 C 316.439 60.657,310.616 55.558,290.465 39.532 C 261.357 16.385,240.772 7.125,204.422 0.827 C 198.963 -0.118,191.022 -0.293,184.148 0.382 M137.068 134.783 C 145.609 135.955,155.188 138.714,154.847 139.903 C 154.787 140.114,153.547 144.952,152.093 150.656 C 150.638 156.359,149.425 161.093,149.396 161.175 C 149.368 161.258,148.379 160.954,147.199 160.500 C 127.440 152.899,105.253 157.338,95.548 170.834 C 84.658 185.976,85.725 211.762,97.774 224.665 C 108.184 235.811,127.911 238.929,147.393 232.508 C 148.417 232.170,149.293 231.931,149.338 231.978 C 149.684 232.329,153.467 253.281,153.214 253.441 C 147.453 257.084,123.407 259.597,111.085 257.843 C 78.081 253.146,59.492 231.709,59.478 198.331 C 59.464 161.705,80.540 138.756,118.236 134.352 C 120.374 134.102,134.455 134.424,137.068 134.783 M222.765 134.566 C 230.601 135.397,244.577 139.090,244.577 140.330 C 244.577 140.534,238.588 162.196,238.508 162.282 C 238.475 162.318,237.547 161.962,236.447 161.490 C 215.178 152.382,193.929 156.701,195.960 169.719 C 196.787 175.023,201.240 178.435,213.707 183.319 C 215.805 184.141,218.836 185.333,220.444 185.967 C 240.507 193.880,249.225 204.485,249.225 220.977 C 249.225 246.085,226.894 260.991,193.494 258.179 C 183.075 257.301,165.931 252.614,166.499 250.798 C 166.564 250.588,167.802 245.590,169.249 239.690 C 170.697 233.790,171.930 228.826,171.990 228.659 C 172.068 228.442,172.585 228.600,173.817 229.221 C 185.991 235.352,203.516 237.668,212.612 234.349 C 218.866 232.066,222.025 227.282,221.205 221.335 C 220.357 215.181,215.568 211.538,201.311 206.200 C 184.896 200.055,175.838 193.418,171.210 184.148 C 164.730 171.169,168.604 154.026,180.135 144.650 C 187.308 138.818,195.534 135.725,207.509 134.360 C 209.676 134.113,219.779 134.250,222.765 134.566 M319.309 134.566 C 327.145 135.397,341.120 139.090,341.120 140.330 C 341.120 140.534,335.132 162.196,335.052 162.282 C 335.018 162.318,334.090 161.962,332.990 161.490 C 311.721 152.382,290.472 156.701,292.503 169.719 C 293.330 175.023,297.783 178.435,310.250 183.319 C 312.348 184.141,315.380 185.333,316.988 185.967 C 337.051 193.880,345.769 204.485,345.769 220.977 C 345.769 246.085,323.437 260.991,290.037 258.179 C 279.618 257.301,262.474 252.614,263.042 250.798 C 263.108 250.588,264.345 245.590,265.793 239.690 C 267.240 233.790,268.474 228.826,268.534 228.659 C 268.612 228.442,269.129 228.600,270.360 229.221 C 282.535 235.352,300.060 237.668,309.155 234.349 C 315.410 232.066,318.569 227.282,317.749 221.335 C 316.900 215.181,312.112 211.538,297.855 206.200 C 281.440 200.055,272.381 193.418,267.753 184.148 C 261.274 171.169,265.147 154.026,276.678 144.650 C 283.851 138.818,292.078 135.725,304.052 134.360 C 306.220 134.113,316.323 134.250,319.309 134.566 " stroke="none" fill="#3464ac" fill-rule="evenodd"></path><path id="path2" d="M177.700 146.901 L 176.758 147.914 177.771 146.972 C 178.713 146.096,178.894 145.888,178.713 145.888 C 178.675 145.888,178.219 146.344,177.700 146.901 M274.244 146.901 L 273.302 147.914 274.315 146.972 C 275.257 146.096,275.437 145.888,275.257 145.888 C 275.218 145.888,274.762 146.344,274.244 146.901 " stroke="none" fill="#7e96c4" fill-rule="evenodd"></path><path id="path3" d="M120.325 134.376 C 120.621 134.433,121.050 134.431,121.278 134.371 C 121.506 134.312,121.263 134.265,120.739 134.268 C 120.215 134.270,120.028 134.319,120.325 134.376 M129.142 134.376 C 129.437 134.432,129.920 134.432,130.215 134.376 C 130.510 134.319,130.268 134.272,129.678 134.272 C 129.088 134.272,128.847 134.319,129.142 134.376 M209.356 134.372 C 209.586 134.432,209.961 134.432,210.191 134.372 C 210.420 134.312,210.232 134.263,209.774 134.263 C 209.315 134.263,209.127 134.312,209.356 134.372 M217.822 134.376 C 218.118 134.433,218.547 134.431,218.775 134.371 C 219.003 134.312,218.760 134.265,218.236 134.268 C 217.712 134.270,217.525 134.319,217.822 134.376 M305.900 134.372 C 306.129 134.432,306.505 134.432,306.734 134.372 C 306.964 134.312,306.776 134.263,306.317 134.263 C 305.858 134.263,305.670 134.312,305.900 134.372 M314.365 134.376 C 314.662 134.433,315.091 134.431,315.319 134.371 C 315.547 134.312,315.304 134.265,314.779 134.268 C 314.255 134.270,314.069 134.319,314.365 134.376 M77.699 151.549 L 76.877 152.443 77.771 151.622 C 78.603 150.857,78.775 150.656,78.593 150.656 C 78.553 150.656,78.151 151.058,77.699 151.549 M75.432 153.814 L 74.732 154.589 75.507 153.889 C 76.229 153.236,76.391 153.039,76.207 153.039 C 76.166 153.039,75.817 153.388,75.432 153.814 M125.447 156.790 C 126.070 156.839,127.089 156.839,127.712 156.790 C 128.334 156.741,127.825 156.701,126.579 156.701 C 125.334 156.701,124.824 156.741,125.447 156.790 M168.137 170.441 C 168.137 171.424,168.179 171.827,168.231 171.335 C 168.282 170.843,168.282 170.039,168.231 169.547 C 168.179 169.055,168.137 169.458,168.137 170.441 M264.681 170.441 C 264.681 171.424,264.723 171.827,264.774 171.335 C 264.826 170.843,264.826 170.039,264.774 169.547 C 264.723 169.055,264.681 169.458,264.681 170.441 M198.570 175.328 C 199.014 175.787,199.432 176.162,199.498 176.162 C 199.563 176.162,199.253 175.787,198.808 175.328 C 198.363 174.869,197.946 174.493,197.880 174.493 C 197.815 174.493,198.125 174.869,198.570 175.328 M295.113 175.328 C 295.558 175.787,295.976 176.162,296.041 176.162 C 296.107 176.162,295.796 175.787,295.352 175.328 C 294.907 174.869,294.489 174.493,294.424 174.493 C 294.358 174.493,294.668 174.869,295.113 175.328 M177.235 192.372 C 177.880 193.027,178.462 193.564,178.528 193.564 C 178.594 193.564,178.119 193.027,177.473 192.372 C 176.827 191.716,176.246 191.180,176.180 191.180 C 176.114 191.180,176.589 191.716,177.235 192.372 M273.778 192.372 C 274.424 193.027,275.006 193.564,275.071 193.564 C 275.137 193.564,274.662 193.027,274.017 192.372 C 273.371 191.716,272.789 191.180,272.724 191.180 C 272.658 191.180,273.133 191.716,273.778 192.372 M88.017 192.849 C 88.017 193.308,88.066 193.495,88.126 193.266 C 88.186 193.036,88.186 192.661,88.126 192.431 C 88.066 192.202,88.017 192.390,88.017 192.849 M59.416 193.921 C 59.419 194.446,59.468 194.632,59.525 194.336 C 59.582 194.039,59.580 193.610,59.520 193.382 C 59.460 193.154,59.414 193.397,59.416 193.921 M88.017 200.238 C 88.017 200.697,88.066 200.885,88.126 200.656 C 88.186 200.426,88.186 200.051,88.126 199.821 C 88.066 199.592,88.017 199.779,88.017 200.238 M59.412 202.384 C 59.412 202.843,59.461 203.030,59.521 202.801 C 59.581 202.572,59.581 202.196,59.521 201.967 C 59.461 201.737,59.412 201.925,59.412 202.384 M125.447 235.932 C 126.070 235.981,127.089 235.981,127.712 235.932 C 128.334 235.883,127.825 235.843,126.579 235.843 C 125.334 235.843,124.824 235.883,125.447 235.932 M239.444 245.352 L 238.021 246.841 239.511 245.419 C 240.331 244.636,241.001 243.966,241.001 243.929 C 241.001 243.753,240.766 243.968,239.444 245.352 M335.988 245.352 L 334.565 246.841 336.055 245.419 C 336.874 244.636,337.545 243.966,337.545 243.929 C 337.545 243.753,337.309 243.968,335.988 245.352 M117.464 258.333 C 117.761 258.390,118.190 258.388,118.418 258.328 C 118.645 258.269,118.403 258.222,117.878 258.225 C 117.354 258.227,117.168 258.276,117.464 258.333 M126.881 258.336 C 127.243 258.390,127.779 258.389,128.072 258.332 C 128.366 258.276,128.069 258.231,127.414 258.233 C 126.758 258.234,126.518 258.281,126.881 258.336 M196.129 258.333 C 196.426 258.390,196.855 258.388,197.083 258.328 C 197.311 258.269,197.068 258.222,196.544 258.225 C 196.019 258.227,195.833 258.276,196.129 258.333 M204.711 258.333 C 205.007 258.390,205.436 258.388,205.664 258.328 C 205.892 258.269,205.650 258.222,205.125 258.225 C 204.601 258.227,204.414 258.276,204.711 258.333 M292.673 258.333 C 292.969 258.390,293.398 258.388,293.626 258.328 C 293.854 258.269,293.611 258.222,293.087 258.225 C 292.563 258.227,292.376 258.276,292.673 258.333 M301.254 258.333 C 301.551 258.390,301.980 258.388,302.208 258.328 C 302.436 258.269,302.193 258.222,301.669 258.225 C 301.144 258.227,300.958 258.276,301.254 258.333 " stroke="none" fill="#9caccd" fill-rule="evenodd"></path><path id="path4" d="M98.438 167.282 L 97.616 168.176 98.510 167.355 C 99.342 166.590,99.514 166.389,99.332 166.389 C 99.292 166.389,98.890 166.791,98.438 167.282 M240.048 197.974 C 240.760 198.695,241.396 199.285,241.462 199.285 C 241.527 199.285,240.998 198.695,240.286 197.974 C 239.574 197.253,238.938 196.663,238.872 196.663 C 238.807 196.663,239.336 197.253,240.048 197.974 M336.591 197.974 C 337.303 198.695,337.940 199.285,338.005 199.285 C 338.071 199.285,337.542 198.695,336.830 197.974 C 336.117 197.253,335.481 196.663,335.416 196.663 C 335.350 196.663,335.879 197.253,336.591 197.974 M88.017 198.093 C 88.017 198.552,88.066 198.740,88.126 198.510 C 88.186 198.281,88.186 197.905,88.126 197.676 C 88.066 197.446,88.017 197.634,88.017 198.093 M217.163 214.139 C 217.163 214.180,217.512 214.529,217.938 214.914 L 218.713 215.614 218.013 214.839 C 217.360 214.117,217.163 213.955,217.163 214.139 M313.707 214.139 C 313.707 214.180,314.055 214.529,314.482 214.914 L 315.256 215.614 314.556 214.839 C 313.903 214.117,313.707 213.955,313.707 214.139 " stroke="none" fill="#6080bc" fill-rule="evenodd"></path></g></svg>