{
  "accessors": [
    {
      "bufferView": 2,
      "componentType": 5126,
      "count": 24,
      "max": [
        0.10413199663162231,
        0.11441999673843384,
        -0.02043999917805195
      ],
      "min": [
        -0.10966700315475464,
        -0.13102300465106964,
        -0.031136000528931618
      ],
      "type": "VEC3"
    },
    {
      "bufferView": 2,
      "byteOffset": 288,
      "componentType": 5126,
      "count": 24,
      "max": [
        1.0,
        1.0,
        1.0
      ],
      "min": [
        -1.0,
        -1.0,
        -1.0
      ],
      "type": "VEC3"
    },
    {
      "bufferView": 1,
      "componentType": 5126,
      "count": 24,
      "max": [
        0.875,
        1.0
      ],
      "min": [
        0.125,
        0.0
      ],
      "type": "VEC2"
    },
    {
      "bufferView": 0,
      "componentType": 5125,
      "count": 36,
      "type": "SCALAR"
    },
    {
      "bufferView": 2,
      "byteOffset": 576,
      "componentType": 5126,
      "count": 65532,
      "max": [
        0.08886399865150452,
        0.1033409982919693,
        0.1687069982290268
      ],
      "min": [
        -0.09613099694252014,
        -0.11775299906730652,
        -0.023648999631404877
      ],
      "type": "VEC3"
    },
    {
      "bufferView": 2,
      "byteOffset": 786960,
      "componentType": 5126,
      "count": 65532,
      "max": [
        0.9999557733535767,
        0.9999940395355225,
        1.0
      ],
      "min": [
        -0.9999847412109375,
        -0.9999911785125732,
        -0.9999980926513672
      ],
      "type": "VEC3"
    },
    {
      "bufferView": 3,
      "componentType": 5126,
      "count": 65532,
      "max": [
        0.9999992251396179,
        0.9999916553497314,
        0.999915599822998,
        1.0
      ],
      "min": [
        -0.9999772310256958,
        -0.999997079372406,
        -0.9999018907546997,
        -1.0
      ],
      "type": "VEC4"
    },
    {
      "bufferView": 1,
      "byteOffset": 192,
      "componentType": 5126,
      "count": 65532,
      "max": [
        0.9999799728393555,
        0.9988359808921814
      ],
      "min": [
        0.0,
        7.000000096013537e-06
      ],
      "type": "VEC2"
    },
    {
      "bufferView": 0,
      "byteOffset": 144,
      "componentType": 5125,
      "count": 346650,
      "type": "SCALAR"
    },
    {
      "bufferView": 2,
      "byteOffset": 1573344,
      "componentType": 5126,
      "count": 51761,
      "max": [
        0.08997800201177597,
        0.10351700335741043,
        0.1750590056180954
      ],
      "min": [
        -0.09595999866724014,
        -0.11821600049734116,
        -0.024359000846743584
      ],
      "type": "VEC3"
    },
    {
      "bufferView": 2,
      "byteOffset": 2194476,
      "componentType": 5126,
      "count": 51761,
      "max": [
        0.9999994039535522,
        0.9999790191650391,
        1.0
      ],
      "min": [
        -0.9999479055404663,
        -0.9999899864196777,
        -0.9999978542327881
      ],
      "type": "VEC3"
    },
    {
      "bufferView": 3,
      "byteOffset": 1048512,
      "componentType": 5126,
      "count": 51761,
      "max": [
        0.9999934434890747,
        0.9999827742576599,
        0.9999644756317139,
        1.0
      ],
      "min": [
        -0.9999967217445374,
        -0.9999933242797852,
        -0.9999337792396545,
        -1.0
      ],
      "type": "VEC4"
    },
    {
      "bufferView": 1,
      "byteOffset": 524448,
      "componentType": 5126,
      "count": 51761,
      "max": [
        0.9999859929084778,
        0.998753011226654
      ],
      "min": [
        1.4999999621068127e-05,
        0.00015300000086426735
      ],
      "type": "VEC2"
    },
    {
      "bufferView": 0,
      "byteOffset": 1386744,
      "componentType": 5125,
      "count": 253257,
      "type": "SCALAR"
    }
  ],
  "asset": {
    "extras": {
      "author": "Museu de l'Empordà (https://sketchfab.com/museuemporda)",
      "license": "CC-BY-4.0 (http://creativecommons.org/licenses/by/4.0/)",
      "source": "https://sketchfab.com/3d-models/petita-maternitat-pau-gargallo-catalan-66a5a505dcc044b18fd6574372b6f903",
      "title": "PETITA MATERNITAT - Pau Gargallo Catalán"
    },
    "generator": "Sketchfab-10.81.0",
    "version": "2.0"
  },
  "bufferViews": [
    {
      "buffer": 0,
      "byteLength": 2399772,
      "name": "floatBufferViews",
      "target": 34963
    },
    {
      "buffer": 0,
      "byteLength": 938536,
      "byteOffset": 2399772,
      "byteStride": 8,
      "name": "floatBufferViews",
      "target": 34962
    },
    {
      "buffer": 0,
      "byteLength": 2815608,
      "byteOffset": 3338308,
      "byteStride": 12,
      "name": "floatBufferViews",
      "target": 34962
    },
    {
      "buffer": 0,
      "byteLength": 1876688,
      "byteOffset": 6153916,
      "byteStride": 16,
      "name": "floatBufferViews",
      "target": 34962
    }
  ],
  "buffers": [
    {
      "byteLength": 8030604,
      "uri": "scene.bin"
    }
  ],
  "images": [
    {
      "uri": "textures/PETITA_MATERNITAT_MODEL_1_baseColor.jpeg"
    },
    {
      "uri": "textures/PETITA_MATERNITAT_MODEL_1_normal.png"
    }
  ],
  "materials": [
    {
      "doubleSided": true,
      "name": "Material.001",
      "pbrMetallicRoughness": {
        "baseColorFactor": [
          0.204555,
          0.198766,
          0.204901,
          1.0
        ],
        "metallicFactor": 0.0,
        "roughnessFactor": 0.8063508326896291
      }
    },
    {
      "doubleSided": true,
      "name": "PETITA_MATERNITAT_MODEL_1",
      "normalTexture": {
        "index": 1
      },
      "pbrMetallicRoughness": {
        "baseColorTexture": {
          "index": 0
        },
        "metallicFactor": 0.0
      }
    }
  ],
  "meshes": [
    {
      "name": "Object_0",
      "primitives": [
        {
          "attributes": {
            "NORMAL": 1,
            "POSITION": 0,
            "TEXCOORD_0": 2
          },
          "indices": 3,
          "material": 0,
          "mode": 4
        }
      ]
    },
    {
      "name": "Object_1",
      "primitives": [
        {
          "attributes": {
            "NORMAL": 5,
            "POSITION": 4,
            "TANGENT": 6,
            "TEXCOORD_0": 7
          },
          "indices": 8,
          "material": 1,
          "mode": 4
        }
      ]
    },
    {
      "name": "Object_2",
      "primitives": [
        {
          "attributes": {
            "NORMAL": 10,
            "POSITION": 9,
            "TANGENT": 11,
            "TEXCOORD_0": 12
          },
          "indices": 13,
          "material": 1,
          "mode": 4
        }
      ]
    }
  ],
  "nodes": [
    {
      "children": [
        1
      ],
      "matrix": [
        0.9823909401893616,
        -4.1486161670355884e-17,
        0.1868370622396469,
        0.0,
        0.1868370622396469,
        2.1813460819627685e-16,
        -0.9823909401893616,
        0.0,
        0.0,
        1.0,
        2.220446049250313e-16,
        0.0,
        0.0015023228479549289,
        -1.4726367531115443e-19,
        0.0006632166332565248,
        1.0
      ],
      "name": "Sketchfab_model"
    },
    {
      "children": [
        2,
        3,
        4
      ],
      "name": "PETITA_MATERNITAT_MODEL_1_FINAL.obj.cleaner.materialmerger.gles"
    },
    {
      "mesh": 0,
      "name": "Object_2"
    },
    {
      "mesh": 1,
      "name": "Object_3"
    },
    {
      "mesh": 2,
      "name": "Object_4"
    }
  ],
  "samplers": [
    {
      "magFilter": 9729,
      "minFilter": 9987,
      "wrapS": 10497,
      "wrapT": 10497
    }
  ],
  "scene": 0,
  "scenes": [
    {
      "name": "Sketchfab_Scene",
      "nodes": [
        0
      ]
    }
  ],
  "textures": [
    {
      "sampler": 0,
      "source": 0
    },
    {
      "sampler": 0,
      "source": 1
    }
  ]
}
